# xmcd
#
# Track frame offsets:
#	150
#	9444
#	20078
#	29362
#	40053
#	48499
#	58351
#	70979
#	82971
#	92339
#	102791
#	113764
#	122652
#	134528
#	143095
#	152653
#	163510
#	174902
#	186008
#	195811
#	205824
#	216679
#	227009
#	237216
#	249214
#	257450
#	268781
#	279260
#	289655
#	299480
#
# Disc length: 4107 seconds
#
# Revision: 0
# Processed by: cddbd v1.5.2PL0 Copyright (c) Steve Scherf et al.
# Submitted via: EZCDAudioConverter 2.0.4.1
#
DISCID=a310091e
DTITLE=Conway Twitty - Tell Me One More Time
DYEAR=2004
DGENRE=Country
TTITLE0=Praise Him, Praise Him
TTITLE1=Hallelujah, I Love Her So
TTITLE2=I Vibrate (From My Heart To My Feet)
TTITLE3=You Win Again
TTITLE4=Hey Little Lucy!
TTITLE5=Easy To Fall In Love
TTITLE6=Rosaleena
TTITLE7=Is A Blue Bird Blue
TTITLE8=A' Huggin' An A' Kissin'
TTITLE9=The Story Of My Love
TTITLE10=Make Me Know You're Mine
TTITLE11=She's Mine
TTITLE12=Trouble In Mind
TTITLE13=Beachcomber
TTITLE14=Teasin'
TTITLE15=First Romance
TTITLE16=Can't We Go Steady
TTITLE17=Mona Lisa
TTITLE18=When I'm Not With You
TTITLE19=It's Only Make Believe
TTITLE20=Hey Miss Ruby
TTITLE21=C'est Si Bon
TTITLE22=My Adobe Hacienda
TTITLE23=What Am I Living For
TTITLE24=Just Because
TTITLE25=Sorry
TTITLE26=I'll Try
TTITLE27=Lonely Blue Boy
TTITLE28=Goin' Home
TTITLE29=Pretty Eyed Baby
EXTD=
EXTT0=
EXTT1=
EXTT2=
EXTT3=
EXTT4=
EXTT5=
EXTT6=
EXTT7=
EXTT8=
EXTT9=
EXTT10=
EXTT11=
EXTT12=
EXTT13=
EXTT14=
EXTT15=
EXTT16=
EXTT17=
EXTT18=
EXTT19=
EXTT20=
EXTT21=
EXTT22=
EXTT23=
EXTT24=
EXTT25=
EXTT26=
EXTT27=
EXTT28=
EXTT29=
PLAYORDER=
